<mxfile modified="2020-01-05T10:07:39.768Z" host="www.draw.io" agent="Mozilla/5.0 (Windows NT 10.0; WOW64) AppleWebKit/537.36 (KHTML, like Gecko) Chrome/79.0.3945.88 Safari/537.36" etag="u97oRxYNOoICJ1DTfElM" version="12.4.8" type="github">
  <diagram id="WI9T0HZ2pTsCkuznbFz-" name="Page-1">
    <mxGraphModel dx="1220" dy="623" grid="1" gridSize="10" guides="1" tooltips="1" connect="1" arrows="1" fold="1" page="1" pageScale="1" pageWidth="1169" pageHeight="827" math="0" shadow="0">
      <root>
        <mxCell id="0"/>
        <mxCell id="1" parent="0"/>
        <mxCell id="YNtNwSOMHbU0ZXok-y7X-3" value="" style="edgeStyle=orthogonalEdgeStyle;rounded=0;orthogonalLoop=1;jettySize=auto;html=1;" parent="1" source="YNtNwSOMHbU0ZXok-y7X-1" target="YNtNwSOMHbU0ZXok-y7X-2" edge="1">
          <mxGeometry relative="1" as="geometry"/>
        </mxCell>
        <mxCell id="YNtNwSOMHbU0ZXok-y7X-1" value="&lt;b&gt;&lt;font style=&quot;font-size: 14px&quot;&gt;获取执行环境&lt;/font&gt;&lt;br&gt;environment&lt;br&gt;&lt;/b&gt;" style="rounded=1;whiteSpace=wrap;html=1;fillColor=#3399FF;" parent="1" vertex="1">
          <mxGeometry x="140" y="450" width="120" height="60" as="geometry"/>
        </mxCell>
        <mxCell id="YNtNwSOMHbU0ZXok-y7X-5" value="" style="edgeStyle=orthogonalEdgeStyle;rounded=0;orthogonalLoop=1;jettySize=auto;html=1;" parent="1" source="YNtNwSOMHbU0ZXok-y7X-2" target="YNtNwSOMHbU0ZXok-y7X-4" edge="1">
          <mxGeometry relative="1" as="geometry"/>
        </mxCell>
        <mxCell id="YNtNwSOMHbU0ZXok-y7X-2" value="&lt;b&gt;&lt;font style=&quot;font-size: 14px&quot;&gt;创建/获取 输入的数据&lt;/font&gt;&lt;br&gt;source&lt;br&gt;&lt;/b&gt;" style="rounded=1;whiteSpace=wrap;html=1;fillColor=#3399FF;" parent="1" vertex="1">
          <mxGeometry x="310" y="450" width="160" height="60" as="geometry"/>
        </mxCell>
        <mxCell id="YNtNwSOMHbU0ZXok-y7X-7" value="" style="edgeStyle=orthogonalEdgeStyle;rounded=0;orthogonalLoop=1;jettySize=auto;html=1;" parent="1" source="YNtNwSOMHbU0ZXok-y7X-4" target="YNtNwSOMHbU0ZXok-y7X-6" edge="1">
          <mxGeometry relative="1" as="geometry"/>
        </mxCell>
        <mxCell id="YNtNwSOMHbU0ZXok-y7X-4" value="&lt;b&gt;&lt;font style=&quot;font-size: 14px&quot;&gt;执行特定的转换&lt;/font&gt;&lt;br&gt;transformation&lt;br&gt;&lt;/b&gt;" style="rounded=1;whiteSpace=wrap;html=1;fillColor=#FF8000;" parent="1" vertex="1">
          <mxGeometry x="550" y="450" width="120" height="60" as="geometry"/>
        </mxCell>
        <mxCell id="YNtNwSOMHbU0ZXok-y7X-9" value="" style="edgeStyle=orthogonalEdgeStyle;rounded=0;orthogonalLoop=1;jettySize=auto;html=1;" parent="1" source="YNtNwSOMHbU0ZXok-y7X-6" target="YNtNwSOMHbU0ZXok-y7X-8" edge="1">
          <mxGeometry relative="1" as="geometry"/>
        </mxCell>
        <mxCell id="YNtNwSOMHbU0ZXok-y7X-6" value="&lt;b&gt;&lt;font&gt;&lt;span style=&quot;font-size: 14px&quot;&gt;指定输出到哪里&lt;/span&gt;&lt;br&gt;&lt;font style=&quot;font-size: 12px&quot;&gt;sink&lt;/font&gt;&lt;br&gt;&lt;/font&gt;&lt;/b&gt;" style="rounded=1;whiteSpace=wrap;html=1;fillColor=#3399FF;" parent="1" vertex="1">
          <mxGeometry x="750" y="450" width="120" height="60" as="geometry"/>
        </mxCell>
        <mxCell id="YNtNwSOMHbU0ZXok-y7X-8" value="&lt;b&gt;&lt;font&gt;&lt;span style=&quot;font-size: 14px&quot;&gt;执行第一步获得的环境&lt;/span&gt;&lt;br&gt;&lt;font style=&quot;font-size: 12px&quot;&gt;execute&lt;/font&gt;&lt;br&gt;&lt;/font&gt;&lt;/b&gt;" style="rounded=1;whiteSpace=wrap;html=1;fillColor=#3399FF;" parent="1" vertex="1">
          <mxGeometry x="920" y="450" width="170" height="60" as="geometry"/>
        </mxCell>
        <mxCell id="YNtNwSOMHbU0ZXok-y7X-10" value="&lt;font style=&quot;font-size: 36px&quot;&gt;flink的执行流程&lt;/font&gt;" style="text;html=1;strokeColor=none;fillColor=none;align=center;verticalAlign=middle;whiteSpace=wrap;rounded=0;" parent="1" vertex="1">
          <mxGeometry x="120" y="370" width="270" height="20" as="geometry"/>
        </mxCell>
        <mxCell id="KipuTBZGTqe2G2WcFVqi-3" value="" style="rounded=1;whiteSpace=wrap;html=1;shadow=0;strokeColor=#B5739D;fillColor=none;dashed=1;" vertex="1" parent="1">
          <mxGeometry x="495" y="420" width="230" height="120" as="geometry"/>
        </mxCell>
        <mxCell id="KipuTBZGTqe2G2WcFVqi-4" value="&lt;font style=&quot;font-size: 14px&quot;&gt;map&amp;nbsp; flatmap filter join ...&lt;/font&gt;" style="text;html=1;strokeColor=none;fillColor=none;align=center;verticalAlign=middle;whiteSpace=wrap;rounded=0;shadow=0;dashed=1;" vertex="1" parent="1">
          <mxGeometry x="500" y="420" width="230" height="20" as="geometry"/>
        </mxCell>
      </root>
    </mxGraphModel>
  </diagram>
</mxfile>
